<svg width="18" height="17" viewBox="0 0 18 17" fill="none" xmlns="http://www.w3.org/2000/svg">
<g id="google logo">
<path id="Vector" d="M4.26756 10.2733L3.67581 12.4824L1.51299 12.5281C0.866629 11.3293 0.5 9.95762 0.5 8.5C0.5 7.09049 0.842789 5.7613 1.45041 4.59093H1.45087L3.37639 4.94394L4.21988 6.8579C4.04334 7.37259 3.94712 7.92509 3.94712 8.5C3.94718 9.12395 4.06021 9.72177 4.26756 10.2733Z" fill="#FBBB00"/>
<path id="Vector_2" d="M17.3515 6.91209C17.4491 7.42628 17.5 7.9573 17.5 8.5C17.5 9.10855 17.436 9.70215 17.3142 10.2747C16.9004 12.2232 15.8192 13.9246 14.3214 15.1286L14.321 15.1281L11.8957 15.0044L11.5524 12.8616C12.5462 12.2788 13.3229 11.3667 13.7321 10.2747H9.18689V6.91209H13.7984H17.3515Z" fill="#518EF8"/>
<path id="Vector_3" d="M14.3208 15.1281L14.3213 15.1286C12.8647 16.2994 11.0142 17 8.99994 17C5.76294 17 2.94861 15.1907 1.51294 12.5282L4.2675 10.2733C4.98532 12.1891 6.83337 13.5529 8.99994 13.5529C9.93119 13.5529 10.8036 13.3011 11.5523 12.8616L14.3208 15.1281Z" fill="#28B446"/>
<path id="Vector_4" d="M14.4255 1.95686L11.6719 4.21122C10.8971 3.72692 9.98122 3.44715 9 3.44715C6.78439 3.44715 4.90177 4.87346 4.21992 6.85791L1.45087 4.59093H1.45041C2.86506 1.86346 5.71489 0 9 0C11.0624 0 12.9534 0.734653 14.4255 1.95686Z" fill="#F14336"/>
</g>
</svg>
